<svg width="60" height="60" viewBox="0 0 60 60" fill="none" xmlns="http://www.w3.org/2000/svg">
<path d="M29.9975 18.4414C26.9316 18.4414 23.9913 19.6593 21.8233 21.8273C19.6554 23.9952 18.4375 26.9355 18.4375 30.0014C18.4375 33.0673 19.6554 36.0076 21.8233 38.1756C23.9913 40.3435 26.9316 41.5614 29.9975 41.5614C33.0634 41.5614 36.0037 40.3435 38.1717 38.1756C40.3396 36.0076 41.5575 33.0673 41.5575 30.0014C41.5575 26.9355 40.3396 23.9952 38.1717 21.8273C36.0037 19.6593 33.0634 18.4414 29.9975 18.4414ZM29.9975 37.5089C28.0057 37.5089 26.0955 36.7177 24.6871 35.3093C23.2787 33.9009 22.4875 31.9907 22.4875 29.9989C22.4875 28.0071 23.2787 26.0969 24.6871 24.6885C26.0955 23.2801 28.0057 22.4889 29.9975 22.4889C31.9893 22.4889 33.8995 23.2801 35.3079 24.6885C36.7163 26.0969 37.5075 28.0071 37.5075 29.9989C37.5075 31.9907 36.7163 33.9009 35.3079 35.3093C33.8995 36.7177 31.9893 37.5089 29.9975 37.5089Z" fill="white"/>
<path d="M42.0153 20.7142C43.5037 20.7142 44.7103 19.5076 44.7103 18.0192C44.7103 16.5308 43.5037 15.3242 42.0153 15.3242C40.5269 15.3242 39.3203 16.5308 39.3203 18.0192C39.3203 19.5076 40.5269 20.7142 42.0153 20.7142Z" fill="white"/>
<path d="M51.3314 15.2767C50.7527 13.7822 49.8682 12.4249 48.7347 11.2919C47.6013 10.1588 46.2437 9.2749 44.7489 8.69672C42.9997 8.04011 41.1519 7.68507 39.2839 7.64672C36.8764 7.54172 36.1139 7.51172 30.0089 7.51172C23.9039 7.51172 23.1214 7.51172 20.7339 7.64672C18.8674 7.68311 17.0208 8.03822 15.2739 8.69672C13.7787 9.27422 12.4208 10.1579 11.2872 11.291C10.1537 12.4242 9.26948 13.7818 8.69141 15.2767C8.03467 17.0257 7.68044 18.8738 7.64391 20.7417C7.53641 23.1467 7.50391 23.9092 7.50391 30.0167C7.50391 36.1217 7.50391 36.8992 7.64391 39.2917C7.68141 41.1617 8.03391 43.0067 8.69141 44.7592C9.2711 46.2536 10.1561 47.6107 11.29 48.7437C12.4238 49.8766 13.7816 50.7607 15.2764 51.3392C17.02 52.0222 18.8673 52.4027 20.7389 52.4642C23.1464 52.5692 23.9089 52.6017 30.0139 52.6017C36.1189 52.6017 36.9014 52.6017 39.2889 52.4642C41.1567 52.4262 43.0045 52.0721 44.7539 51.4167C46.2483 50.8372 47.6055 49.9525 48.7388 48.8191C49.8722 47.6858 50.7569 46.3286 51.3364 44.8342C51.9939 43.0842 52.3464 41.2392 52.3839 39.3692C52.4914 36.9642 52.5239 36.2017 52.5239 30.0942C52.5239 23.9867 52.5239 23.2117 52.3839 20.8192C52.3548 18.9249 51.9987 17.0498 51.3314 15.2767ZM48.2864 39.1067C48.2703 40.5475 48.0073 41.9748 47.5089 43.3267C47.1335 44.2989 46.5587 45.1817 45.8216 45.9184C45.0845 46.6551 44.2013 47.2293 43.2289 47.6042C41.892 48.1003 40.4798 48.3633 39.0539 48.3817C36.6789 48.4917 36.0089 48.5192 29.9189 48.5192C23.8239 48.5192 23.2014 48.5192 20.7814 48.3817C19.3562 48.3643 17.9447 48.1013 16.6089 47.6042C15.6331 47.2317 14.7464 46.6585 14.0061 45.9216C13.2659 45.1848 12.6885 44.3008 12.3114 43.3267C11.82 41.9893 11.5572 40.5788 11.5339 39.1542C11.4264 36.7792 11.4014 36.1092 11.4014 30.0192C11.4014 23.9267 11.4014 23.3042 11.5339 20.8817C11.5501 19.4418 11.813 18.0153 12.3114 16.6642C13.0739 14.6917 14.6364 13.1392 16.6089 12.3842C17.9454 11.8896 19.3565 11.6266 20.7814 11.6067C23.1589 11.4992 23.8264 11.4692 29.9189 11.4692C36.0114 11.4692 36.6364 11.4692 39.0539 11.6067C40.4799 11.6239 41.8923 11.8869 43.2289 12.3842C44.2012 12.7599 45.0843 13.3347 45.8213 14.0718C46.5584 14.8089 47.1332 15.6919 47.5089 16.6642C48.0003 18.0016 48.2631 19.4121 48.2864 20.8367C48.3939 23.2142 48.4214 23.8817 48.4214 29.9742C48.4214 36.0642 48.4214 36.7192 48.3139 39.1092H48.2864V39.1067Z" fill="white"/>
</svg>
