<svg width="60" height="60" viewBox="0 0 60 60" fill="none" xmlns="http://www.w3.org/2000/svg">
<path d="M12.4583 17.9908C15.4793 17.9908 17.9283 15.5418 17.9283 12.5208C17.9283 9.49978 15.4793 7.05078 12.4583 7.05078C9.43728 7.05078 6.98828 9.49978 6.98828 12.5208C6.98828 15.5418 9.43728 17.9908 12.4583 17.9908Z" fill="white"/>
<path d="M23.0933 22.1367V52.4842H32.5158V37.4767C32.5158 33.5167 33.2608 29.6817 38.1708 29.6817C43.0133 29.6817 43.0733 34.2092 43.0733 37.7267V52.4867H52.5008V35.8442C52.5008 27.6692 50.7408 21.3867 41.1858 21.3867C36.5983 21.3867 33.5233 23.9042 32.2658 26.2867H32.1383V22.1367H23.0933ZM7.73828 22.1367H17.1758V52.4842H7.73828V22.1367Z" fill="white"/>
</svg>
